<svg xmlns="http://www.w3.org/2000/svg" width="209.37" height="32.453" viewbox="0 0 209.37 32.453">
  <g id="Gruppe_233" data-name="Gruppe 233" transform="translate(-419.277 -581.369)">
    <path *ngIf="firstLetter" class="logo-letter" id="logo_path_1" data-name="Pfad 1" d="M441.261,590.746l-9.284,9.968,9.876,12.516h-7.965l-6.873-8.966-1.138,1.138v7.828h-6.6V581.369h6.6v17.387l7.465-8.01Z" fill="#fcf7e4"/>
    <path *ngIf="otherLetters" class="logo-letter" id="logo_path_2" data-name="Pfad 2" d="M450.456,581.369V613.23H443.81V581.369Z" transform="translate(0)" fill="#fcf7e4"/>
    <path *ngIf="otherLetters" class="logo-letter" id="logo_path_3" data-name="Pfad 3" d="M469.754,590.746H476.4V613.23h-6.645v-2.867a7.327,7.327,0,0,1-2.663,2.526,7.818,7.818,0,0,1-3.891.933,7.68,7.68,0,0,1-6.054-2.458,9.776,9.776,0,0,1-2.185-6.736V590.746h6.645v12.289a5.253,5.253,0,0,0,1.025,3.459,3.605,3.605,0,0,0,2.935,1.229,3.792,3.792,0,0,0,3.05-1.343,5.636,5.636,0,0,0,1.138-3.755Z" transform="translate(0 0)" fill="#fcf7e4"/>
    <path *ngIf="otherLetters" class="logo-letter" id="logo_path_4" data-name="Pfad 4" d="M481.087,613.23V581.369h6.6V593.75a7.646,7.646,0,0,1,3.118-2.64,9.651,9.651,0,0,1,4.164-.911,9.762,9.762,0,0,1,4.21.911,10.665,10.665,0,0,1,3.369,2.48,11.543,11.543,0,0,1,2.253,3.733,13.058,13.058,0,0,1,.819,4.665,12.879,12.879,0,0,1-.819,4.643,11.865,11.865,0,0,1-2.253,3.732,10.479,10.479,0,0,1-3.369,2.5,9.762,9.762,0,0,1-4.21.911,10.321,10.321,0,0,1-4.164-.842,7.061,7.061,0,0,1-3.118-2.617v2.912Zm17.933-11.242a5.659,5.659,0,0,0-.455-2.276,6.143,6.143,0,0,0-1.229-1.843,5.731,5.731,0,0,0-8.193,0,6.125,6.125,0,0,0-1.229,1.843,5.92,5.92,0,0,0,0,4.552,6.1,6.1,0,0,0,1.229,1.843,5.731,5.731,0,0,0,8.193,0,6.118,6.118,0,0,0,1.229-1.843A5.655,5.655,0,0,0,499.02,601.988Z" transform="translate(0)" fill="#fcf7e4"/>
    <path *ngIf="otherLetters" class="logo-letter" id="logo_path_5" data-name="Pfad 5" d="M516.589,584.146v6.6h5.689v5.461h-5.689v8.239a3.513,3.513,0,0,0,.8,2.594,3.375,3.375,0,0,0,2.435.774,5.259,5.259,0,0,0,1.275-.159,3.759,3.759,0,0,0,1.183-.524v5.735a10.037,10.037,0,0,1-1.912.638,11.853,11.853,0,0,1-2.731.273,7.518,7.518,0,0,1-5.6-2.071,7.963,7.963,0,0,1-2.048-5.849v-9.65H506.8v-5.461h3.187v-6.6Z" transform="translate(0 0)" fill="#fcf7e4"/>
    <path *ngIf="otherLetters" class="logo-letter" id="logo_path_6" data-name="Pfad 6" d="M548.313,590.746V613.23H541.8v-3a7.638,7.638,0,0,1-3.118,2.64,9.657,9.657,0,0,1-4.164.911,9.764,9.764,0,0,1-4.211-.911,10.661,10.661,0,0,1-3.368-2.48,11.532,11.532,0,0,1-2.253-3.733,13.054,13.054,0,0,1-.819-4.665,12.882,12.882,0,0,1,.819-4.643,11.878,11.878,0,0,1,2.253-3.732,10.506,10.506,0,0,1,3.368-2.5,9.764,9.764,0,0,1,4.211-.911,10.1,10.1,0,0,1,4.164.865,7.334,7.334,0,0,1,3.118,2.594v-2.912Zm-17.842,11.242a5.638,5.638,0,0,0,.455,2.276,6.1,6.1,0,0,0,1.229,1.843,5.731,5.731,0,0,0,8.193,0,6.137,6.137,0,0,0,1.229-1.843,5.921,5.921,0,0,0,0-4.552,6.163,6.163,0,0,0-1.229-1.843,5.73,5.73,0,0,0-8.193,0,6.123,6.123,0,0,0-1.229,1.843A5.642,5.642,0,0,0,530.471,601.988Z" transform="translate(0 0)" fill="#fcf7e4"/>
    <path *ngIf="otherLetters" class="logo-letter" id="logo_path_7" data-name="Pfad 7" d="M559.692,581.369V613.23h-6.646V581.369Z" transform="translate(0)" fill="#fcf7e4"/>
    <path *ngIf="otherLetters" class="logo-letter" id="logo_path_8" data-name="Pfad 8" d="M585.408,607.859a10.573,10.573,0,0,1-4.074,4.37,12.141,12.141,0,0,1-6.349,1.593,13.006,13.006,0,0,1-4.825-.865,10.912,10.912,0,0,1-3.755-2.435,11.2,11.2,0,0,1-2.458-3.755,12.57,12.57,0,0,1-.888-4.779,12.284,12.284,0,0,1,.888-4.711,11.521,11.521,0,0,1,2.458-3.755,11.21,11.21,0,0,1,3.687-2.481,11.836,11.836,0,0,1,4.62-.887,11.958,11.958,0,0,1,4.665.887,10.47,10.47,0,0,1,3.618,2.481,11.362,11.362,0,0,1,2.344,3.8,13.506,13.506,0,0,1,.842,4.847c0,.4-.007.728-.022,1a5.233,5.233,0,0,1-.068.638H569.568a4.549,4.549,0,0,0,.547,1.82,4.924,4.924,0,0,0,1.206,1.434,5.734,5.734,0,0,0,3.664,1.3,5.266,5.266,0,0,0,2.958-.728,6.254,6.254,0,0,0,1.866-2Zm-5.735-8.375a4.518,4.518,0,0,0-1.593-2.981,5.094,5.094,0,0,0-3.414-1.16,5.023,5.023,0,0,0-1.866.341,5.43,5.43,0,0,0-2.663,2.253,3.813,3.813,0,0,0-.523,1.547Z" transform="translate(0 0)" fill="#fcf7e4"/>
    <path *ngIf="otherLetters" class="logo-letter" id="logo_path_9" data-name="Pfad 9" d="M595.921,613.23h-6.645V590.746h6.645v2.867a7.391,7.391,0,0,1,2.709-2.549,8.078,8.078,0,0,1,3.937-.91,7.752,7.752,0,0,1,6.076,2.458,9.717,9.717,0,0,1,2.208,6.736V613.23h-6.646V600.9a5.091,5.091,0,0,0-1.046-3.437,3.769,3.769,0,0,0-3.005-1.206,3.862,3.862,0,0,0-3.072,1.343,5.487,5.487,0,0,0-1.161,3.709Z" transform="translate(0 0)" fill="#fcf7e4"/>
    <path *ngIf="otherLetters" class="logo-letter" id="logo_path_10" data-name="Pfad 10" d="M622.958,584.146v6.6h5.689v5.461h-5.689v8.239a3.513,3.513,0,0,0,.8,2.594,3.375,3.375,0,0,0,2.435.774,5.259,5.259,0,0,0,1.275-.159,3.758,3.758,0,0,0,1.183-.524v5.735a10.012,10.012,0,0,1-1.912.638,11.853,11.853,0,0,1-2.731.273,7.517,7.517,0,0,1-5.6-2.071,7.963,7.963,0,0,1-2.048-5.849v-9.65h-3.186v-5.461h3.186v-6.6Z" transform="translate(0 0)" fill="#fcf7e4"/>
  </g>
</svg>
